# xmcd
#
# Track frame offsets:
#	150
#	9192
#	20510
#	32817
#	43366
#	56292
#	66022
#	76344
#	89722
#	100507
#	111882
#	122084
#	134133
#	142976
#	152151
#	164621
#	172525
#	180249
#	190772
#	202184
#	213680
#	223409
#	234513
#	249085
#
# Disc length: 3458 seconds
#
# Revision: 0
# Processed by: cddbd v1.4PL0 Copyright (c) Steve Scherf et al.
# Submitted via: EasyCDDAExtractor 4.5.2.1
#
DISCID=4f0d8018
DTITLE=Various Artist - Aladdin and Imperial Vocal Group Magic vol-6
DYEAR=1900
DGENRE=Oldies
TTITLE0=Impollos (Jimmy Inman and the) - I'm So Sorry
TTITLE1=Impollos (Jimmy Inman and the) - You Never Knew
TTITLE2=Jayhawks - The Creature
TTITLE3=Tommy Lampkin - Lover's Plea
TTITLE4=Lovers - Darling, It's Wonderful
TTITLE5=Monitors - Tonight's The night
TTITLE6=Four Palms - Consideration
TTITLE7=Royal Halos - My Love Is True
TTITLE8=Royal Halos - Nobody But Me And My Girl
TTITLE9=Saratogas - I'll Be Loving You
TTITLE10=Clowns (Huey Smith and the) - I Need Someone To Love
TTITLE11=Spotlighters - Bam Jingle Jingle
TTITLE12=Spotlighters - This Is My Story
TTITLE13=Spotlighters - Preachin'
TTITLE14=Symbols - The Wrong Girl
TTITLE15=Tantones - No Matter
TTITLE16=Tantones - I Love You, Really I Do
TTITLE17=Five Techniques (Elvie and the) - Heaven Above
TTITLE18=Turbans - Clickety Click Clack
TTITLE19=Turbans - I Wonder
TTITLE20=Turbans - The Damage Is Done
TTITLE21=Viceroys - Please Baby, Please
TTITLE22=Viceroys - Death Of An Angel
TTITLE23=Donald Woods - Memories Of An Angel
EXTD=
EXTT0=
EXTT1=
EXTT2=
EXTT3=
EXTT4=
EXTT5=
EXTT6=
EXTT7=
EXTT8=
EXTT9=
EXTT10=
EXTT11=
EXTT12=
EXTT13=
EXTT14=
EXTT15=
EXTT16=
EXTT17=
EXTT18=
EXTT19=
EXTT20=
EXTT21=
EXTT22=
EXTT23=
PLAYORDER=
